:FULLY-SPECIFIED
:FORCE-ALL-JOINTS-BE-3DOF
:DEGREES
2548
root 4.01578 13.8363 -23.9894 978.574 75.53 -103.468
lfemur -34.9815 6.18204 -15.2609
ltibia 86.6745 0 0
lfoot -26.1292 27.8476 0
ltoes -42.5113 0 0
rfemur -57.6594 -22.0904 13.4112
rtibia 54.9721 0 0
rfoot -1.77518 4.90536 0
rtoes 2.83037 0 0
lowerback 17.5019 0.267896 -4.93357
upperback -0.731713 -0.351299 2.93372
thorax -10.6536 0.222771 6.13152
lowerneck 4.9833 -14.7016 -15.2187
upperneck 0.0933743 -20.5671 15.1612
head 2.38516 -10.4276 6.24688
lclavicle -4.11058e-15 -1.37445e-14 0
lhumerus -48.7909 -44.8674 112.642
lradius 106.065 0 0
lwrist 79.818 0 0
lhand 7.70821 400.151 0
lfingers 7.12502 0 0
lthumb 32.9477 -652.854 0
rclavicle -4.11058e-15 -1.37445e-14 0
rhumerus 12.2874 -7.43511 -58.713
rradius 80.7544 0 0
rwrist 18.6783 0 0
rhand -33.8269 -403.348 0
rfingers 7.12502 0 0
rthumb -7.00895 286.965 0
2549
root 3.96658 13.8664 -24.1323 985.508 73.8172 -96.5278
lfemur -34.5534 4.92543 -15.9486
ltibia 86.1329 0 0
lfoot -25.7956 28.2374 0
ltoes -43.0325 0 0
rfemur -57.7721 -21.3498 14.0582
rtibia 53.671 0 0
rfoot -2.27182 4.12683 0
rtoes 1.84767 0 0
lowerback 17.6683 0.393075 -5.15308
upperback -0.648628 -0.245121 2.89154
thorax -10.6726 0.282258 6.18458
lowerneck 4.97235 -14.7082 -15.232
upperneck 0.044249 -20.5759 15.2746
head 2.38802 -10.433 6.28093
lclavicle -4.87022e-15 -1.35173e-14 0
lhumerus -47.7274 -45.0899 112.176
lradius 105.66 0 0
lwrist 79.3452 0 0
lhand 7.51096 400.123 0
lfingers 7.12502 0 0
lthumb 32.7599 -652.844 0
rclavicle -4.87022e-15 -1.35173e-14 0
rhumerus 13.2991 -5.713 -58.1672
rradius 81.4953 0 0
rwrist 16.6469 0 0
rhand -32.8917 -402.305 0
rfingers 7.12502 0 0
rthumb -6.10607 287.995 0
2550
root 3.91737 13.8966 -24.2751 992.442 72.1045 -89.5875
lfemur -34.1253 3.66882 -16.6363
ltibia 85.5914 0 0
lfoot -25.4621 28.6272 0
ltoes -43.5537 0 0
rfemur -57.8848 -20.6092 14.7052
rtibia 52.3699 0 0
rfoot -2.76846 3.34831 0
rtoes 0.864975 0 0
lowerback 17.8347 0.518255 -5.37258
upperback -0.565543 -0.138943 2.84936
thorax -10.6916 0.341745 6.23765
lowerneck 4.96139 -14.7148 -15.2453
upperneck -0.00487629 -20.5846 15.3879
head 2.39088 -10.4384 6.31498
lclavicle -5.62986e-15 -1.32902e-14 0
lhumerus -46.6638 -45.3124 111.709
lradius 105.255 0 0
lwrist 78.8724 0 0
lhand 7.31371 400.096 0
lfingers 7.12502 0 0
lthumb 32.5722 -652.834 0
rclavicle -5.62986e-15 -1.32902e-14 0
rhumerus 14.3109 -3.99089 -57.6213
rradius 82.2362 0 0
rwrist 14.6155 0 0
rhand -31.9565 -401.262 0
rfingers 7.12502 0 0
rthumb -5.20319 289.025 0
2551
root 3.86817 13.9267 -24.418 999.377 70.3917 -82.6471
lfemur -33.6972 2.41221 -17.324
ltibia 85.0499 0 0
lfoot -25.1285 29.017 0
ltoes -44.0749 0 0
rfemur -57.9974 -19.8686 15.3522
rtibia 51.0688 0 0
rfoot -3.26511 2.56979 0
rtoes -0.117723 0 0
lowerback 18.0011 0.643435 -5.59208
upperback -0.482459 -0.0327649 2.80718
thorax -10.7106 0.401231 6.29071
lowerneck 4.95044 -14.7214 -15.2586
upperneck -0.0540016 -20.5934 15.5013
head 2.39374 -10.4438 6.34903
lclavicle -6.38951e-15 -1.3063e-14 0
lhumerus -45.6002 -45.535 111.242
lradius 104.85 0 0
lwrist 78.3996 0 0
lhand 7.11646 400.068 0
lfingers 7.12502 0 0
lthumb 32.3844 -652.823 0
rclavicle -6.38951e-15 -1.3063e-14 0
rhumerus 15.3226 -2.26877 -57.0755
rradius 82.9771 0 0
rwrist 12.5841 0 0
rhand -31.0213 -400.22 0
rfingers 7.12502 0 0
rthumb -4.30032 290.055 0
2552
root 3.81896 13.9568 -24.5608 1006.31 68.6789 -75.7068
lfemur -33.2691 1.1556 -18.0117
ltibia 84.5084 0 0
lfoot -24.7949 29.4068 0
ltoes -44.5961 0 0
rfemur -58.1101 -19.128 15.9992
rtibia 49.7677 0 0
rfoot -3.76175 1.79126 0
rtoes -1.10042 0 0
lowerback 18.1675 0.768614 -5.81159
upperback -0.399374 0.073413 2.765
thorax -10.7296 0.460718 6.34377
lowerneck 4.93949 -14.728 -15.2719
upperneck -0.103127 -20.6021 15.6147
head 2.3966 -10.4492 6.38308
lclavicle -7.14915e-15 -1.28358e-14 0
lhumerus -44.5367 -45.7575 110.776
lradius 104.445 0 0
lwrist 77.9268 0 0
lhand 6.91921 400.04 0
lfingers 7.12502 0 0
lthumb 32.1966 -652.813 0
rclavicle -7.14915e-15 -1.28358e-14 0
rhumerus 16.3343 -0.546657 -56.5297
rradius 83.718 0 0
rwrist 10.5527 0 0
rhand -30.0861 -399.177 0
rfingers 7.12502 0 0
rthumb -3.39744 291.085 0
2553
root 3.76976 13.9869 -24.7037 1013.25 66.9662 -68.7665
lfemur -32.841 -0.101005 -18.6995
ltibia 83.9668 0 0
lfoot -24.4614 29.7967 0
ltoes -45.1172 0 0
rfemur -58.2227 -18.3875 16.6462
rtibia 48.4667 0 0
rfoot -4.2584 1.01274 0
rtoes -2.08312 0 0
lowerback 18.3339 0.893794 -6.03109
upperback -0.31629 0.179591 2.72283
thorax -10.7485 0.520204 6.39684
lowerneck 4.92854 -14.7347 -15.2852
upperneck -0.152252 -20.6109 15.7281
head 2.39945 -10.4545 6.41713
lclavicle -7.90879e-15 -1.26086e-14 0
lhumerus -43.4731 -45.9801 110.309
lradius 104.04 0 0
lwrist 77.454 0 0
lhand 6.72195 400.013 0
lfingers 7.12502 0 0
lthumb 32.0088 -652.803 0
rclavicle -7.90879e-15 -1.26086e-14 0
rhumerus 17.346 1.17546 -55.9839
rradius 84.4588 0 0
rwrist 8.52136 0 0
rhand -29.1508 -398.134 0
rfingers 7.12502 0 0
rthumb -2.49457 292.114 0
